<?xml version="1.0" encoding="UTF-8"?>
<svg id="Layer_2" data-name="Layer 2" xmlns="http://www.w3.org/2000/svg" viewBox="0 0 373.92 1072.64">
  <defs>
    <style>
      .cls-1 {
        fill: #f2d56c;
      }

      .cls-2 {
        fill: #bf913b;
      }

      .cls-3 {
        fill: #fde99d;
      }

      .cls-4 {
        fill: #e6c13a;
      }

      .cls-5 {
        fill: #6a7d75;
      }

      .cls-6 {
        fill: #fff;
      }

      .cls-7 {
        fill: #beded3;
      }

      .cls-8 {
        fill: #fffefc;
      }

      .cls-9 {
        fill: #fefaee;
      }

      .cls-10 {
        fill: #ede4c8;
      }

      .cls-11 {
        fill: #a8cbbf;
      }

      .cls-12 {
        fill: #e6c23a;
      }
    </style>
  </defs>
  <g id="Lamp-H">
    <g>
      <g>
        <path class="cls-9" d="M126.35,71.72c-4.19.49-8.35,1.26-12.54,1.76-20.37,2.42-40.94,2.47-61.39,3.78-9.96,1.88-20.08,2.63-30.17,3.43-1.14,0-2.28-.03-3.43-.09-2.05.11-4.47-1.1-6.21.33,0,0,0,0,0,0-1.77-2.28.43-4.89,2.16-6.46,4.81-4.33,11.44-4.97,17.62-5.49,5.94-.43,11.82-1.13,17.72-1.94,21.61-.66,43.23,2.96,64.86,1.16,5.22-.29,18.01-3.18,15.67,5.92-1.17-1.51-2.09-2.96-4.28-2.4Z"/>
        <path class="cls-9" d="M3.22,240.06c1.34-15.19.9-30.49,3.44-45.6,3.44-32.31-4.67-66.1,3.88-97.56-1.19-.64-2.29-1.35-3.23-2.18-5.41-4.3-4.98-11.79,1.47-14.58-3.28,4.28-.32,8.52,3.42,11.3.71-2.09,1.49-4.17,2.38-6.23,0,0,0,0,0,0-.02,2.59,0,5.19.03,7.78.28.15.56.3.84.44,6.31,2.55,13.28,2.44,19.96,3.13,7.33.67,14.71.92,21.99,2,9.67,1.49,19.27,3.47,28.94,4.97,8.39.91,16.8,1.36,25.23,1.59,7.58-.09,15.17-.15,22.76-.16,0,.49,0,.98.02,1.47.01.83.31,1.59.78,2.21.08.1.16.2.25.3.1.1.21.2.32.29.56.46,1.26.75,2.05.78.01,0,.03,0,.04,0,.01,0,.02,0,.03,0h.04c.8,0,1.56-.3,2.18-.78.81-.63,1.37-1.58,1.35-2.65,0-.54-.02-1.09-.02-1.63,7.49.02,14.99.08,22.48.22,2.68.04,5.34-.2,8.01-.44,3.02-.27,6.05-.54,9.09-.39,2.57.12,5.06.07,7.53-.07,4.13-.88,8.24-1.87,12.24-3.26,8.68-3.46,17.01-8.43,26.56-8.94,1.95.14,4.07-.23,6.2-.6,3.92-.67,7.87-1.33,10.94,1.13.33-.4.61-.82.8-1.3.17.62.06,1.26-.17,1.87.11.11.22.21.32.32.44.51.79,1.04,1.1,1.59.23-.01.47-.03.7-.04-.17.12-.35.23-.53.35.12.24.23.49.33.73.27-1.29.52-2.59.75-3.89-.34-.35-.52-.84-.42-1.51.03-.13.07-.24.12-.36-2.14.75-4.89.07-4.49-2.58.07-.32.21-.61.38-.87-2.46-.35-4.92-.75-7.22-1.72-4.72-1.85-8.84-5.16-14.03-5.74-14.22-1.23-28.5-2.11-42.64-3.95-11.75.34-23.53-.21-35.21-1.41-2.06-.27-4.09-.67-6.14-1.04,3.76-.48,7.62-.91,11.51-1.51,11.18-1.58,22.61-2.44,33.85-1.07,14.63-.13,29.29.76,43.65,3.41,6.32,2.18,21.29,8.52,23.79,14.59-.37-.14-.76-.24-1.14-.35-.07.29-.19.55-.35.8,1.5-.36,3.22.21,2.94,2.01-.23,1.08-1.35,1.74-2.48,1.88,3.43,9.99,1.92,24.8,1.05,37.18.17,1.09.34,2.17.5,3.26.27.78.5,1.58.63,2.41.82,4.91,1.18,9.87,1.31,14.85,1.37,15.89,1.63,31.89,1.25,47.71-.37,8.25,2.56,16.69.3,24.78.03.32.07.64.1.96.33,4.01.43,8.71.27,12.95-.2,1.82.22,4.48-1.69,5.54,0,.03-.01.06-.02.08-.04.41-.22.85-.6,1.11-.01.05-.02.1-.03.15-.22.8-1.15,1.32-2.02,1.23-.13.46-.42.89-.9,1.11-1.73.75-3.56,1.23-5.4,1.71-.08.04-.17.08-.25.11-.54.3-1.08.59-1.63.87-1.44.9-2.93,1.74-4.43,2.52-7.22,3.73-15.09,6.31-23.07,8.39-9.5,2.48-19.22,4.3-28.97,5.74-9.87,1.46-19.82,2.51-29.79,3.22-10.27.74-20.56,1.15-30.87,1.3-2.53.04-5.06.05-7.59.05-7.5,0-14.99-.17-22.48-.6-10.45-.59-20.89-1.67-31.23-3.18-2.98-.43-5.95-.92-8.91-1.46-5.49-.11-10.85-1.66-16.17-3.05-1.7-.31-3.4-.6-5.1-.9-2.24.53-4.51.96-6.79,1.23-13.65,3.1-27.45-7.72-24.08-22.01ZM243.7,108.25c-.27.26-.54.5-.83.73,0,1.69-.24,3.39-.58,4.79.42.41.76.84,1.05,1.3.15-1.26.33-2.51.54-3.75-.06-1.02-.12-2.05-.18-3.07ZM243.87,211.67c-.31.28-.61.57-.95.83.35.43.67.86.97,1.28,0-.7-.01-1.41-.02-2.11ZM28.14,184.7c-2.64-.33-4.76-1.41-6.46-3.07.21,2.04.42,4.08.63,6.12,1.62-1.32,3.54-2.37,5.83-3.05ZM97.34,124.84c.32-.22.65-.42.98-.61-.83.04-1.66.08-2.5.1.51.17,1.01.34,1.52.51ZM32.32,101.46c1.26.73,2.54,1.42,3.91,1.94,4.08,1.89,8.59,2.38,12.94,3.34.23.06.45.1.68.15-4.79-1.68-9.52-3.58-14.29-5.22-1.07-.06-2.15-.13-3.24-.2ZM14.72,98.66c.13,5.02.32,10.04.61,15.06.94-.87,2.08-1.68,3.44-2.41.23-1.93.44-3.86.64-5.78-1.71-1.7-2.93-3.82-2.19-6.14-.86-.22-1.69-.46-2.49-.73ZM142.93,109.33c2.13.23,4.25.45,6.35.67,5.41-.11,10.82-.42,16.22-.97-7.52.2-15.04.26-22.57.3Z"/>
      </g>
      <g>
        <path class="cls-7" d="M184.79,90.87c-1.86.02-3.72.04-5.58.03-7.84,0-15.69-.21-23.55-.48,2.36.29,4.72.66,7.07,1.15-6.08-.22-12.22-.09-18.35.27,2.93.51,5.86,1.07,8.76,1.72-4.16.65-8.34,1.26-12.52,1.81-.01-.06-.02-.12-.03-.19-.18-1.02-.37-2.03-.55-3.05,0,0,0,0,0,0-.14-.77-.28-1.55-.41-2.32h0s-.02-.09-.02-.14c-.01-.06-.02-.11-.03-.17h0c-.06-.34-.12-.69-.18-1.03-.59-3.36-1.09-6.72-1.66-10.08,8.78,1.28,15.76,2.67,18.2,3.42,10.55.58,21.8.26,31.88,3.1,2.66,2.21-.35,5.65-3.02,5.94Z"/>
        <path class="cls-7" d="M15.33,82.94c2.9-3.08,10.78-6.08,12.63-.61.25,1.39.42,2.67.57,3.85,3.68-2.33,8.67-4.05,10.95-4.46,13.2-.87,29.26-5.8,41.51.47,1.38-8.59,28.32-7.4,49.71-4.74.39,3.38.9,6.75,1.41,10.12.1.66.21,1.31.32,1.97-2.4-.09-4.81-.16-7.21-.24,1.12.11,2.23.23,3.34.35,1.29-.03,2.59-.06,3.88-.08.03.17.06.35.09.52h0c.12.67.24,1.34.36,2,.25,1.38.52,2.76.77,4.14-1,.11-2,.21-2.99.31,1.01-.02,2.02-.05,3.03-.06.13.75.24,1.5.34,2.25,0,0,0,0,0,0,0,.02,0,.04,0,.06.06.48.1.96.14,1.45,0,0,.02,0,.02,0,.01.12.02.24.03.35,0,0,0,0,0,0,.01.14.02.28.03.42,0,.08.01.15.02.23,0,.03,0,.07,0,.1,0,.13,0,.27.01.4h0c0,.24.02.49.02.73,0,0,0,0,0,0,0,.05,0,.1,0,.15,0,0,0,0,0,0,0,.29,0,.57,0,.86,0,.11,0,.22,0,.33,0,.05,0,.1,0,.16,0,0,0,0,0,0,0,.05,0,.09,0,.14h0s0,.06,0,.09c0,.62.01,1.25.02,1.87,0,.06,0,.13,0,.19h0c0,.06,0,.11,0,.17,0,0,0,0,0,0,0,.28.05.56.11.82.02.07.04.14.06.22.06.19.13.38.22.55.04.07.07.14.11.21.11.19.23.37.37.53.03.04.05.08.09.11.18.19.38.37.59.52.53.37,1.17.6,1.88.62h.07c1.29,0,2.51-.77,3.12-1.88.09-.16.16-.33.22-.5.03-.08.06-.17.08-.25.06-.24.1-.49.1-.74,0-.02,0-.04,0-.05,0-.25,0-.51-.01-.76,0,0,0,0,0,0-.02-1.31-.04-2.62-.06-3.92,0-.13-.01-.26-.02-.39-.02-.75-.07-1.49-.14-2.23-.01-.12-.02-.24-.03-.36-.09-.83-.2-1.66-.33-2.49,7.57.03,15.14.32,22.7,1.09.49-.09.95-.19,1.44-.28-3.88-.36-7.75-.79-11.63-1.16,13.96-1.26,28.06-2.04,42.15-2.73.52-.11,1.04-.22,1.55-.34,4.81-1.02,9.24-3.29,13.04-6.41-.11.19-.4.43-.61.66-2.23,2.46-4.87,4.3-7.72,5.79,3.77-.18,7.55-.35,11.31-.53,5.2-.98,10.47-1.57,15.7-1.48.04-.01.07-.02.11-.03-.03.01-.05.02-.08.03.61.01,1.22.03,1.82.06.16.05.32.11.48.17,1.47-.44,2.94-.89,4.41-1.36.02-.06.05-.12.07-.18-.23-.19-.7-.12-.89-.24.67-.25,1.13-.1,1.42.23.19-.06.38-.11.56-.17-.39-.1-.92-.11-1.23-.24.69.04,2.68-.92,2.53.3-.5.46-1.03.87-1.55,1.3-.03.29-.1.59-.24.86-1.56,2.74-3.76,4.76-6.33,6.27-.24.32-.52.63-.85.92,2.85-.88,5.45-1.75,5.88-3.16,1.52,3.29-6.86,5.43-11.17,6.09-5.47,2.08-12.72,3.27-16.41,4.68-9.68,3-19.68,4.94-29.81,5.43-3.53.18-7.07.24-10.6.24-6.21,0-12.43-.19-18.64-.3-1.63,0-3.27,0-4.91,0-5.95.02-11.88.05-17.83-.4-2.14-.1-4.25-.36-6.33-.72-.1,0-.21,0-.31,0-2.68,0-5.36-.18-8.02-.46-3.87.59-7.76.97-11.69.97-.76,0-1.52-.01-2.29-.04-3.52-.06-7.06-.15-10.61-.32-5.76.69-11.36,1.17-16.82,1.17-9.06,0-17.73-1.3-26.12-5.05-2.16.02-4.31-.16-6.43-.51-5.34.05-10.66-.53-15.58-2.69-8.37-2.98-13.28-14.33-5.96-20.94ZM34.08,95.96s.1.05.14.07c.43.06.86.12,1.31.18-.02,0-.03-.02-.05-.03-.47-.07-.94-.15-1.41-.22ZM48.43,98.44c6.17,1.19,11.52,2.34,12.47,2.56,3.23.4,6.47.7,9.71.92.86-.09,1.72-.18,2.57-.29-8.57-1.02-17.12-2.25-25.64-3.56.3.13.59.26.89.38ZM93.95,97.27c2.39.01,4.78,0,7.16-.03-7.51-.42-15.04-.72-22.57-1.16,5.11.59,10.24,1.03,15.4,1.19ZM34.27,90.35c1.84.13,3.67.3,5.5.49,8.24-.34,16.46-1.65,24.71-2.73-3.31-.4-6.6-.93-9.88-1.64-6.76,1.48-14.08.54-20.33,3.88ZM59.89,85.71c7.1.14,14.24-.28,21.3-1.12-.11-.37-.19-.73-.23-1.07-6.81-.88-14.07,1.02-21.07,2.19ZM213.22,96.06c-1.36.14-2.73.24-4.1.3-5.73.75-11.58,1.04-17.38,1.22.58.1,1.17.2,1.75.32.56.21,2.84.68,5.41,1.3,4.79-.97,9.57-2.01,14.33-3.14,0,0-.01,0-.02,0Z"/>
      </g>
      <g>
        <path class="cls-11" d="M234.03,91.6c0,.13,0,.27,0,.4-.05,1.08-.25,2.07-.58,2.97.09.27.16.56.2.87-.04.94-.68,1.65-1.47,2.02-.33.53-.72,1.07-1.21,1.62-4.26,4.05-9.81,5.64-15.52,6.2.54-.64,1.09-1.27,1.65-1.91-1.75.24-3.49.41-5.12.53.14.3.25.62.3.97-1.22-.35-2.52,0-3.75.27-2.73.82-5.52,1.39-8.32,1.71-11.72,5.72-25.32,7.35-38.51,7.84-5.28.08-10.54-.42-15.78-1.01,7.18-1.26,14.56-2.27,21.73-3.9,5.21-1.29,10.38-2.71,15.55-4.14-.96-.26-1.91-.53-2.86-.85,2.58-1.08,5.23-2.19,7.95-3.12-2.21-.51-4.38-1.18-6.5-2.01-5.07.53-10.12,1.31-15.16,2.06,3.79.69,7.54,1.62,11.18,2.87-6.37.19-12.8-.36-19.05-1.77-5.39.69-10.79,1.2-16.25,1.18-.38,0-.77.01-1.15.02-.01-.84-.03-1.68-.04-2.52-.02-1.32-.13-2.63-.3-3.92.62-.01,1.23-.03,1.85-.04,7.28-.17,14.55-.77,21.73-2.07-7.93.39-15.87.54-23.8.56-.07-.41-.14-.82-.21-1.24-.39-2.16-.78-4.31-1.16-6.47,0,0,0,0,0,0-.01-.08-.03-.16-.04-.23-.02-.12-.04-.24-.06-.36-.02-.13-.05-.27-.07-.4h0c-.04-.22-.08-.44-.11-.65,1.94.03,3.87.25,5.75.7,5.66.04,11.35.1,17.1.2,6.28.05,12.55-.05,18.82-.21-13.96-1.67-27.96-2.39-41.98-2.54-.44-2.71-.86-5.41-1.33-8.11,1.5.04,3.01.07,4.51.11.81-2.06,4.1-2.18,6.43-2.17,3.08-.09,6.06-.77,9.04-1.39,2.08-.26,4.18.19,6.23.48.93-.73,2.17-.49,3.23-.2,2.86.61,5.78.97,8.7,1.21,6.9.01,13.84.5,20.1,3.25,4.21.12,8.44.45,12.45,1.46,3.52.89,7.02,1.81,10.57,2.56,3.3.7,6.64,1.24,9.99,1.72,1.61.39,4.91-.06,6.65.96,1.31.77,2.16,2.12,1.5,3.64-.56,1.07-1.56,2.03-2.89,2.88ZM213.39,99.88s.03.02.05.03c-.03-.09-.03-.19.02-.29-.61-.43-1.19-.9-1.72-1.42-1.15-.05-2.29-.16-3.43-.33-.2.02-.4.04-.6.06,1.91.52,3.8,1.16,5.67,1.95ZM214.69,98.2c-.07.19-.15.39-.23.58.35-.21.77-.43,1.25-.67-.34.03-.68.07-1.02.09ZM219.81,100.68c-.2,0-.39,0-.57-.03-3.38.07-5.07-.13-5.61-.52,0,.15-.1.32-.29.38-1.37.54-2.77.98-4.18,1.36.52.25,1.02.53,1.45.86,2.88-.38,5.75-.76,8.58-1.33.21-.24.41-.48.62-.72Z"/>
        <path class="cls-11" d="M23.63,91.13c-1.39-2.57,2.81-3.33,4.67-3.34-1.53-.98-1.85-3.02-.87-4.49,2.73-3.76,8.01-3.79,12.21-4.62,23.69-3.27,47.7-2.26,71.54-2.26,6.43.17,12.92.34,19.45.5.31,2.76.7,5.51,1.11,8.25-4.91,0-9.82.09-14.73.2.02.71.03,1.42.04,2.12,4.61.07,9.23.12,13.85.15.4-.05.79-.11,1.19-.16,0,.02,0,.05.01.07,0,.04.01.07.02.11.22,1.47.49,2.94.75,4.41.07.41.15.83.23,1.25,0,0,0,0,0,0,.06.34.13.68.19,1.02,0,0,0,0,0,0,.13.69.26,1.37.38,2.06-4.14-.02-8.29-.05-12.43-.09-1.3-.01-2.6-.02-3.9-.03.02.38.03.77.06,1.15,0,.09-.01.18-.03.26,5.52.14,11.04.29,16.56.31.15,1.06.27,2.13.33,3.2.03.81.04,1.61.05,2.42,0,0,0,0,0,0,0,.26,0,.51,0,.77,0,0,0,0,0,0h0c0,.12,0,.24,0,.35-1.9.12-3.78.18-5.67.18-4.58,0-9.13-.35-13.65-.93-.38,0-.76-.02-1.14-.03-2.37-.02-4.73,0-7.1.02-6.66.06-13.33.12-19.94-.76-11.21-1.96-22.07-4.88-33.63-4.43-5.84-.37-11.44-2.1-17.1-3.48-3.17-.8-6.31-1.67-9.41-2.72-1.04-.36-2.33-.65-3.06-1.51ZM112.11,86.68c-.21-.14-.41-.31-.57-.53-.89-.22-1.81-.4-2.74-.55-6.54.21-13.07.49-19.6.78-.33.07-.66.14-.98.21,8.03.43,15.98.68,23.91.84-.01-.25-.01-.5-.02-.75ZM113.9,97.45c-.01-.39-.02-.79-.03-1.18-8.43-.06-16.87-.07-25.3.14,6.48.8,13.02,1.07,19.54,1.1,1.94.03,3.89.07,5.83.11,0-.06-.04-.12-.04-.18ZM45.64,84.73c2.23.28,4.46.52,6.7.66,8.24-.75,16.49-1.35,24.75-1.82-10.49.03-21,.17-31.45,1.16ZM50.17,94.45c3.39.11,6.79-.01,10.17-.07,5.25,0,10.48-.23,15.65-1.16-9.73-.6-19.5-.45-29.23-1.2-4.36-.05-8.66-1.75-13-1.26,5.43,1.38,10.87,2.77,16.4,3.7Z"/>
        <path class="cls-11" d="M141.36,104.56c8.32,1.05,16.75,1.07,25.04,2.4-8.23-.15-16.91.11-25.03-1.72,0-.23,0-.45-.01-.68Z"/>
        <path class="cls-11" d="M134.35,106.42h0c0,.15.01.3.03.44-.28-.14-.56-.29-.84-.45.25,0,.52,0,.81.01Z"/>
        <path class="cls-11" d="M141.39,106.59s0-.01,0-.02c7.75.29,17.64,1.23,20.12,4.65-6.93-.74-14.34-.38-21.23-2.17.68-.62,1.13-1.5,1.12-2.47Z"/>
        <path class="cls-11" d="M76.15,105.42c5.14.51,10.46,1.16,15.67,1.6,13.38,1.2,26.79.58,40.22,1.64-5.13.31-10.26.56-15.4.78-13.62.9-27.33-.4-40.49-4.03Z"/>
        <path class="cls-11" d="M50.54,269.27c14.02.31,27.94,1.24,41.77,3.59-13.84-.39-28.15-1.2-41.77-3.59Z"/>
        <path class="cls-11" d="M31.29,266.1c-5.52-1.48-11.7-2.33-16.1-6.35,5.77-.01,13.21.54,16.1,6.35Z"/>
        <path class="cls-11" d="M96.41,268.6c6.09.18,12.18.43,18.28.49.51,0,1.03,0,1.54,0-.04-.11-.08-.22-.08-.34,0-.66.6-1.2,1.33-1.21,5.73-.05,11.45-.02,17.16.28,6.15.51,12.28.77,18.41.84,5.56-.45,11.09-1.1,16.6-1.92,1.91-.32,3.82-.63,5.73-.95,2.8-.45,5.61-.94,8.41-1.44,5.79-1.09,11.56-2.28,17.3-3.52,2.21-.68,4.99-1,6.56-2.7.24-.52.92-.77,1.49-.55.6.48.76.96.6,1.42,3.74-.86,7.48-1.75,11.2-2.67.82-.4,1.74-.68,2.55-1.05,3.62-1.43,7.29-2.76,10.96-4.07,3.59-1.29,7.18-2.6,10.66-4.13,1.75-.65,3.77-2.56,5.61-1.12.47-.36.92-.61,1.37-.79.02-.03.02-.05.04-.08-.25-.43-.24-.99.24-1.35.52-1.28.84-2.59,1.17-3.92.58-2.82.98-5.81,1.29-8.82.06-.61.74-1.04,1.39-.96.7.09,1.11.66,1.06,1.27-.21,2.29-.48,4.58-.89,6.85-.38,2.11-.9,4.2-1.67,6.22,0,.02-.02.05-.03.07.47.11.84.34.92.75.06.21.06.4.02.57.66.97.29,2.5-1.98,3.66-4.94,3.02-10.36,5.27-15.86,7.32-1.78,1.83-4.15,3.1-6.65,3.62-2.82,1.99-5.83,3.63-9.47,3.92-1.94.27-3.88.36-5.82.32-2.37,1.13-5.07,1.61-7.66,2.17-3.65.54-7.32,1.04-10.99,1.51-4.42.83-8.9,1.41-13.42,1.66-7.62,1.5-15.24,2.86-23.09,3.15-1.21.04-2.42-.05-3.62-.14-.92-.1-1.39-.72-1.45-1.38-1.24.02-2.48.06-3.73.07-.05,0-.1,0-.15,0-7.42.49-14.87.49-22.3.52-9.32.06-18.64.1-27.94-.58-2.42-.15-5.05-.39-7.67-.67-.73-.08-1.24-.72-1.14-1.37.36-1.6,2.43-.89,3.72-.97Z"/>
      </g>
      <g>
        <path class="cls-6" d="M213.33,219.27c.16-25.98-.82-52.66,5.06-78.15,2.96,26.1.92,52.6-5.06,78.15Z"/>
        <path class="cls-6" d="M196.7,157.37c.2-6.51,3.41-14.44,1.52-20.36t0,0c1.62-.12,1.61,3.39,2.03,4.86,1.84,11.65,3.02,23.4,3.54,35.18.32,26.56-.7,53.43-5.05,79.65-1.25-19.47-6.49-38.82-5.88-58.51.23-13.68,1.96-27.28,3.84-40.81Z"/>
        <path class="cls-6" d="M171.02,214.66c-3.52-23.4-1.16-47.21.18-70.72,4.17,23.21,2.45,47.34-.18,70.72Z"/>
        <path class="cls-6" d="M149.44,159.24c9.73,25.93,2.27,54.75-.35,81.44-8.26-34.34-11.67-44.02-2.79-79.75.63-4.94-.7-7.85,3.14-1.7Z"/>
        <path class="cls-6" d="M127.47,139.32c.13-1.02,1.9-1.39,2.32-.41.73,2.65,3.7,11.87.49,5.43,4.79,36.86.65,74.08-1.13,111.02-5.13-35.54-7.36-71.85-2.69-107.68.31-2.79.58-5.59,1.01-8.36Z"/>
        <path class="cls-6" d="M92.21,144.22c-.87,20.58-1.27,41.11-.96,61.71.38,12.56,1.66,25.32,1.14,37.93-1.21-14.39-3.75-28.93-3.85-43.49-.43-18.79,1.42-37.51,3.64-56.15,0-.01.03-.02.03,0Z"/>
        <path class="cls-6" d="M72.48,127.82c2.49,1.5.62,10.35.57,12.67-2.52,20.64-4.37,41.33-5.99,62.06-1.32-14.89-1.46-30.22,1.03-45.08.85-9.81,5.93-19.95,4.39-29.64Z"/>
        <path class="cls-6" d="M72.47,127.72s0,.07.01.1c-.3-.18-.65-.28-1.09-.22.29.04.75-.09,1.08.12Z"/>
        <path class="cls-6" d="M45.28,134.76c7.77,34.6.62,70.94.36,106.11-4.07-18.61-7.09-37.95-5.9-57.19.7-16.43,5.24-32.46,5.54-48.92Z"/>
        <path class="cls-6" d="M22.82,122.29c3.75,5.3,2.76,16.02,3.46,22.74.53,23.99-2.6,47.94-.83,71.91-4.2-15.1-6.59-30.94-6.06-46.72-.43-15.93,5.29-32.37,3.43-47.94Z"/>
        <path class="cls-6" d="M10.52,135.55c.32-2.06-.09-5.92,1.77-6.78-.11.09-.23.18-.34.28-.05.17-.1.34-.15.51,1.17,11.12,5.22,21.91,6.1,33.16,2.25,17.91,1.03,35.46.98,53.68,0,.01-.02.02-.03,0-5.73-16.85-7.9-34.71-8.08-52.45v.25c0,.05,0,.11,0,.16-.16-9.66-.39-19.11-.25-28.81Z"/>
      </g>
      <g>
        <path class="cls-10" d="M4.88,248.86c1.77-.71,4.29-.56,5.31,1.28.07.12.14.25.21.37.29.43.62.83.96,1.23.42.43.87.84,1.34,1.23.84.64,1.72,1.21,2.63,1.75,1.21.64,2.45,1.21,3.72,1.72,2.54.93,5.13,1.69,7.74,2.38,7.95,1.94,16.01,3.27,24.13,4.31,17.08,2.03,34.88,2.92,52.68,3.11,3.79.02,8.33,0,12.86-.06,19.56-.26,39.09-1.17,58.56-3.12,7.48-.8,14.96-1.7,22.42-2.73,7.56-1.05,15.09-2.21,22.56-3.77,4.08-.93,8.12-1.97,12.11-3.23,2.02-.71,4-1.48,5.97-2.32,1.99-.94,4.05-1.74,6.06-2.64.76-.37,1.52-.75,2.26-1.17.46-.29.91-.59,1.34-.92.15-.13.3-.26.44-.39.14-.14.27-.29.39-.44.08-.11.16-.22.23-.34.14-.24.26-.54.39-.85,0,0,.02-.01.03,0,.28.45.45.99.54,1.51.48,2.9-1.76,5.65-3.71,7.52-1.83,1.75-4.06,2.87-6.32,3.94-4.39,2.09-9.06,3.66-13.7,5.07-9.64,2.94-19.52,5.14-29.45,6.85-9.86,1.7-19.84,2.71-29.81,3.57-15.99,1.39-32.06,2.11-48.11,2.11-3.63,0-7.26-.04-10.89-.11-19.13-.39-38.31-1.44-57.27-4.18-9.55-1.38-19.13-3.09-28.36-5.96-2.23-.69-4.44-1.46-6.61-2.32-2-.78-4-1.6-5.89-2.62-2.05-1.1-4.08-2.36-5.63-4.12-.42-.48-.87-1.01-1.21-1.58-.15-.21-.28-.44-.36-.67-.03-.08-.06-.15-.08-.23-.65-1.81.91-3.51,2.53-4.16Z"/>
        <path class="cls-10" d="M239.9,119.34c-9.17,3.83-19.05,5.74-28.82,7.35-9.77,1.62-19.6,2.82-29.48,3.63-10.56.87-21.15,1.17-31.75,1.17-9.79,0-19.59-.26-29.37-.57-10.14-.32-20.29-.85-30.4-1.68-10.33-.86-20.67-1.91-30.9-3.56-2.64-.43-5.28-.89-7.91-1.4,1.93,5.08.56,11-1.79,15.83-3.48-5.01-3.61-10.98-2.06-16.63-6.13-1.28-12.21-2.76-18.22-4.55-4.68-1.39-9.36-3.09-13.7-5.34-2.2-1.14-4.43-2.32-6.31-3.94-1.05-.9-2-1.84-2.85-2.94-.57-.74-1.23-1.73-1.38-2.68-.26-1.78.47-3.55,2.02-4.44.29-.26.61-.48.98-.6,0,0,.01,0,.01,0,.17.19.29.4.39.62.09.07.18.13.27.2.37.3.74.6,1.07.93.66.67,1.15,1.37,1.67,2.13.44.54.9,1.04,1.4,1.53.8.69,1.63,1.31,2.51,1.89,1.77,1.06,3.6,1.92,5.48,2.78,1.9.75,3.81,1.51,5.77,2.13,2.06.65,4.13,1.25,6.21,1.85,13.42,3.44,27.13,5.48,40.86,7.16.46.05.92.11,1.39.16,20.26,2.34,40.66,3.43,61.05,3.32,1-.01,2.01-.02,3.01-.05,10.19-.26,20.39-.79,30.56-1.51,9.87-.7,19.73-1.59,29.54-2.87,7.23-1.01,14.4-2.29,21.48-4.1,3.51-.95,6.97-2.03,10.37-3.33,1.45-.6,2.89-1.23,4.29-1.93.81-.44,1.61-.91,2.39-1.41.42-.3.83-.62,1.24-.94.19-.18.38-.36.56-.54.06-.08.12-.16.19-.24,0-.02.02-.03.03-.05,0-.01,0-.02.01-.03,0-.02.01-.04.02-.07,0-.03,0-.06,0-.1,0-.06-.01-.13-.02-.19-.03-.09-.06-.17-.09-.26-.12-.24-.26-.46-.41-.69-.26-.31-.53-.61-.81-.9-.26-.22-.52-.44-.74-.68-1.18-1.29-1.37-3.11-.72-4.7.59-1.44,1.76-2.59,3.07-3.38,2.67-1.61,6.81-2.06,9.27.2,1.14.97,2.14,2.15,2.98,3.36.82,1.2,1.43,2.67,1.55,4.13.62,8.02-7.43,13.17-13.93,15.88Z"/>
        <path class="cls-10" d="M179.76,154.82c-2.05-2.9-.75-6.77.5-9.76,5.13,1.88,3.11,7.4-.5,9.76Z"/>
        <path class="cls-10" d="M179.97,190.4c-1.92-3.14-1.75-7.15-.02-10.39,2,3.11,1.68,7.16.02,10.39Z"/>
        <path class="cls-10" d="M179.47,206.49c6.1-1.35,7.04,7,2.08,9.49-1.41.75-3.08-1.31-3.65-2.25-1.33-2.29-.35-5.56,1.56-7.24Z"/>
        <path class="cls-10" d="M180.36,245.86s0,0-.01,0c-1.42-2.16-1.31-5.03-.25-7.28,1.65,2.12,1.57,4.99.26,7.27Z"/>
        <path class="cls-10" d="M162.42,147.29c.54,2.18-.87,4.35-2.53,5.65,0,0,0,0-.01,0-3.05-1.96-2-5.71-.1-8.1,1.31-.76,2.38,1.42,2.64,2.44Z"/>
        <path class="cls-10" d="M159.98,164.13c2.4,2.86.47,7.12-1.79,9.48-2.02-2.61-1.06-6.02.59-8.59,0-.01.05-.13.1-.24.03-.09.06-.18.09-.27-.12-.11-.37-.12-.47-.22.51-.11.95-.52,1.47-.15Z"/>
        <path class="cls-10" d="M160.48,204.64c-4.85,1.26-5.32-5.11-1.06-6.23,4.96-1.09,5.52,5.05,1.06,6.23Z"/>
        <path class="cls-10" d="M159.45,239c-5.99-.18-4.78-8.44-.44-10.43,6.69-.86,5.83,8.99.44,10.43Z"/>
        <path class="cls-10" d="M153.25,251.77c1.02-4.83,11.03-5.58,10.12.41-1.02,4.83-11.03,5.58-10.12-.41Z"/>
        <path class="cls-10" d="M204.39,134.24c1.24,1.6.76,3.82-.59,5.19-1.55-1.27-1.46-3.71-.31-5.24.25-.25.74-.3.9.05Z"/>
        <path class="cls-10" d="M203.45,173.87c-1.57-3.8-1.29-8.29.94-11.85.54,3.86.26,8.07-.94,11.85Z"/>
        <path class="cls-10" d="M204.79,203.66s0,0,0,0c-1.41-.6-2.14-2.43-1.31-3.77,2.22-.1,3.15,2.45,1.31,3.77Z"/>
        <path class="cls-10" d="M202.42,237.57c-2.79-2.77-.53-6.72.6-9.75,5.46,1.35,3.01,7.65-.6,9.75Z"/>
        <path class="cls-10" d="M212.35,248.57c-1.49,7.02-16.02,8.11-14.71-.6,1.49-7.02,16.02-8.11,14.71.6Z"/>
        <path class="cls-10" d="M227.3,127.07c3.09,6.65,2.82,14.51.35,21.32-1.08-6.99-.64-14.29-.35-21.32Z"/>
        <path class="cls-10" d="M228.43,191.08c.52-5.69.15-11.63-.12-17.43,3.05,5.35,3.22,11.99.12,17.43Z"/>
        <path class="cls-10" d="M226.48,208.4c4.56,6.06,1.59,14.32-.8,20.74-2.11-6.86.89-13.82.8-20.74Z"/>
        <path class="cls-10" d="M223.38,244.49c1.54.34,2.37,2.11,1.35,3.41-1.42-.39-2.2-2.16-1.35-3.41Z"/>
        <path class="cls-10" d="M240.29,133.76c3.57,7.19,0,18.18-.21,26.41-4.1-10.05-1.19-16.75.21-26.41Z"/>
        <path class="cls-10" d="M239.24,188.3c-1.99-4.97-1.37-10.85.37-15.82,3.66,4.75,3.13,11.16-.37,15.82Z"/>
        <path class="cls-10" d="M239.72,203.26c4.14,1.98,3.36,7.41.48,10.18-2.91-2.63-2.87-7.2-.48-10.18Z"/>
        <path class="cls-10" d="M241.12,234.23c-.74-1.64-1.37-3.76-1.26-5.57,1.12,1.64,1.77,3.6,1.26,5.57Z"/>
        <path class="cls-10" d="M112.54,146.08c-2.55-3.67-.07-7.63.85-11.33,4.38,2.29,1.55,8.43-.85,11.33Z"/>
        <path class="cls-10" d="M112.77,161.31c1.33,1.69,1.14,4.05-.37,5.56-.97-1.66-.7-4,.37-5.56Z"/>
        <path class="cls-10" d="M110.6,187.29c.62,1.19.66,2.79.16,4.08,0,0-.02.02-.03,0-.7-1.28-.71-2.77-.14-4.09Z"/>
        <path class="cls-10" d="M112.47,205.18c.24.83.12,1.57-.2,2.36-.98-1.14-1.72-2.71-1.58-4.22.67.42,1.55,1.06,1.78,1.86Z"/>
        <path class="cls-10" d="M109.61,223.79c5.76,2.75,2.61,9.15-.53,12.75-1.75-4.14.95-8.44.53-12.75Z"/>
        <path class="cls-10" d="M110.04,265.66s-.03.01-.03,0c-1.55-5.29-1.87-11.01-.74-16.36,1.89,5.26,2.12,10.94.78,16.35Z"/>
        <path class="cls-10" d="M94.59,145.53c1.95,11.48,1.93,23.13.84,34.69-1.05-11.39-.92-23.25-.84-34.69Z"/>
        <path class="cls-10" d="M95.33,192.7c.55-.58.53.46.63.82-.14-.08-.21-.44-.35-.6-.17,4,.54,8.03.73,12.04.49,9.6-.32,19.23-1.63,28.74-1.27-13.42-3.12-27.76.61-41Z"/>
        <path class="cls-10" d="M95.31,260.62c-1.95-4.78-2.47-10.37-1.44-15.46,3.18,4.59,3.77,10.37,1.44,15.46Z"/>
        <path class="cls-10" d="M80.64,259.25c-3.4-10.76-2.75-22.53-.52-33.46,1.98,11.6,3.73,22.78.52,33.46Z"/>
        <path class="cls-10" d="M80.38,156.86c.75,12.26-.08,24.81-.98,37.11-7.35-11.81-4.26-25.1.98-37.11Z"/>
        <path class="cls-10" d="M62.55,129.22c3.3,10.43.7,21.55-1.34,32.01-2.67-10.56-.58-21.46,1.34-32.01Z"/>
        <path class="cls-10" d="M63.64,235.57c-.69-5.69-.98-11.83-.98-17.57,1.51,5.76,1.94,11.68.98,17.57Z"/>
        <path class="cls-10" d="M63.17,262.82s0,0-.01,0c-2.18-4-2.12-8.97.26-12.88,2.89,3.82,1.93,8.91-.25,12.87Z"/>
        <path class="cls-10" d="M53.42,262.83c-6.8,1.67-3.81-18.73-3.78-22.85.91-8.11,3.24-16.01,5.12-23.94.54,7.22.49,14.72.5,22.04-.42,6.26,2.71,20.76-1.83,24.74Z"/>
        <path class="cls-10" d="M52.54,187.69c-6.11-23.24-.24-25.18,2.66-47.05,5.07,10.99,4.24,23.58,1.63,35.18-1.05,4.03-1.47,8.61-4.28,11.86,0,0,0,0-.01,0Z"/>
        <path class="cls-10" d="M32.96,122.21c1.54,6.9.04,14.38-.95,21.35-1.06-7.04.52-14.27.95-21.35Z"/>
        <path class="cls-10" d="M32.54,221.25c2.42,9.74,2.66,19.76,1.31,29.68-1.08-9.71-1.35-19.9-1.31-29.68Z"/>
        <path class="cls-10" d="M34.94,259.04c-.8,1.52-2.77,1.34-3.62-.02-2.65-4.43,6-4.74,3.62.02Z"/>
        <path class="cls-10" d="M34.15,178.91c5.02,11.07,1.57,23.08-2.53,33.9-2.22-11.24-.54-22.91,2.53-33.9Z"/>
        <path class="cls-10" d="M22.48,255.25c-.08.21-.6.31-.63,0-2.55-5.87-2.42-12.43.36-18.2,3.1,5.53,2.83,12.45.26,18.19Z"/>
        <path class="cls-10" d="M16.32,252.65c-6.17-6.63-5.28-16.3-2.14-24.2,3.71,7.37,4.7,16.26,2.14,24.2Z"/>
        <path class="cls-10" d="M11.02,131.6c.65-5.4,4.96-10.77,4.35-16,3.08,1.1,3.11,6.04,3.76,8.89,1.81,10.64-.93,21.18-4.79,31.05-3.23-7.41-5.25-15.85-3.33-23.94Z"/>
      </g>
      <g>
        <path class="cls-5" d="M204.88,107.01c-8.36,2.2-17.19,3.56-25.91,3.82-7.92.23-16.04.34-23.85-.54,11.22-1.24,22.46-3.27,33.82-3.2,5.37-.14,10.52-.11,15.94-.08Z"/>
        <path class="cls-5" d="M197.11,80.15c.98-1.87,3.14-3.44,5.75-3.37,8.12,1.01,16.44,2.74,24.11,5.68,4.39,2.33,21.34,10.19,11.6,14.69-2.73,3.17-13.7,5.26-16.29,5.94-7.33,1.33-14.89,2.07-22.27,1.7,8.37-2.4,16.96-4.2,25.43-6.29.84-.44,2.32-.66,4.01-.83-10.1-1.6-20.06-5.5-29.44-9.34,3.96.01,8.31-.14,12.63.06-14.91-2.54-29.95-4.14-44.93-6.13-1-.16-2.21-.26-3.21-.49,10.67-1.31,21.43-.96,32.07.44,0-.17,0-.34.03-.51-14.56-1.88-29.18-3.84-43.86-4.53,14.72-2.86,29.8-.55,44.37,2.98ZM239.03,94.97c.05.12.08.23.11.35.1-.96-.8-1.55-2.14-1.95.51.55.94,1.18,1.23,1.94-.74-.96-1.71-1.77-2.82-2.32-2.42-.46-5.36-.65-6.68-1.26-.71-.15-1.42-.32-2.13-.48,2.39,1.09,4.59,2.56,6.46,4.58.29.4.65.94.76,1.44,2.71-.32,5.01-.86,5.2-2.29Z"/>
        <path class="cls-5" d="M45.13,78.49c18.71-3.53,38.05-3.62,57.08-4.27,4.28.28,14.86.6,17.12,4.27-1.8.52-3.66,1.06-5.55,1.58.53-.1,1.02.02,1.44.26.08.01.17.02.25.04-.03.02-.05.04-.08.07.72.51,1.17,1.43,1.11,2.46-.04,1.98-1.42,3.67-2.65,5.11-.84-1.82.82-4.82.29-6.57-1.04.82-2.08,1.59-3.33,2.19-1.93,1-3.99,1.57-6.09,1.8.77.14,1.53.3,2.28.46-1.41-.04-2.85-.16-4.29-.34-3.23.02-6.49-.73-9.49-1.99-16.15.3-32.21-2.31-48.09-5.06ZM113.72,80.09s-.04.01-.07.02c0,0,0,0,.01,0,.02,0,.04-.02.05-.02Z"/>
        <path class="cls-5" d="M115.49,80.36h0s0,0,0,0c0,0-.02,0-.02,0,0,0,0,0,.01,0,0,0,0,0,0,0Z"/>
        <path class="cls-5" d="M115.5,80.38s0,0,0,0c0,0,0,0,0,0h0Z"/>
      </g>
      <path class="cls-8" d="M11.06,245.09c-.05-3.57-.25-7.15-.38-10.72-.18-4.81-.36-9.62-.46-14.43-.11-4.95-.2-9.91-.38-14.86-.18-4.95-.38-9.91-.59-14.86-.43-10.13-.89-20.25-1.25-30.37-.37-10.2-.63-20.4-1.24-30.58-.63-10.52-1.62-21.03-2.53-31.53-.08-.93-.15-1.85-.23-2.78-.06-.78-.09-1.57-.2-2.34,0,0-.01,0-.02,0-.12-.69-.67-1.27-1.49-1.37-1.09-.14-1.93.63-2,1.59-.08,1.11-.03,2.23-.04,3.33-.01,1.25-.03,2.5-.04,3.75-.03,2.59-.05,5.18-.08,7.77C.06,113.09,0,118.48,0,123.88c-.01,10.3.47,20.6.88,30.89.4,9.99.75,19.98,1.04,29.98.29,9.97.59,19.94,1.13,29.89.26,4.82.5,9.64.69,14.47.18,4.48.31,8.95.5,13.43.04.85.07,1.71.13,2.56.05.82.33,1.56.98,2.16.62.57,1.49.89,2.37.89,1.74,0,3.46-1.39,3.35-3.05Z"/>
      <path class="cls-8" d="M8.78,123.49c-.33-7.05-.66-14.12-.64-21.19,3.5,3.03,8.09,4.6,12.18,6.83,1.34.7,3.07.29,3.86-.92.79-1.19.3-2.81-1.01-3.51-4.02-2.53-8.94-3.93-12.17-7.4-1.34-1.35-2.4-3.02-4.13-3.98-3.3-1.44-5.19,1.52-4.77,4.24.02,4.7.24,9.42.54,14.11.12,1.58-.06,3.81,1.97,4.41.21,1.84.47,3.68.68,5.52.02,1.25-.03,3.2,1.82,3.22.8,0,1.59-.57,1.67-1.32Z"/>
      <path class="cls-8" d="M46.24,115.67c2.64-4.54-11.32-6.93-14.34-8.68-3.48-1.62-6.55-3.93-9.45-6.24-3.08-2.43-5.99-5.09-8.7-7.85-1.62-1.44-2.78-3.57-4.96-4.35-2.06-.57-4.32,1.36-3.63,3.27,1.28,2.57,2.73,5.18,4.67,7.4,0,.49.44.9.95,1,3.44,3.29,7.2,6.31,10.88,9.37,1.66,1.23,4.74,3.96,6.5,1.54,4.16,2.1,8.97,2.68,13.16,4.75,1.54.91,3.78,1.58,4.93-.22Z"/>
      <path class="cls-8" d="M12.63,90.89c.83-2.86,2.45-5.41,4.46-7.71.65-.89,1.64-1.73,1.84-2.82.31-2.23-3.66-2.36-3.84-.26-2.09,1.75-10.15,10.68-5.2,12.21,1.16.3,2.4-.35,2.75-1.42Z"/>
      <path class="cls-8" d="M247.38,93.04c-.08-1.28-.96-2.34-1.73-3.37-2.37-2.9-5.31-5.35-8.18-7.83-2.11-2.07-6.52-6.02-9.02-2.36-6.27-1.56-12.43-3.3-18.58-5.23-2.66-.76-5.47-.95-8.25-1.06-4.41-.33-8.77-1.08-13.17-1.48-5.12-.19-10.15-.88-15.18-1.78-3.54-.54-7.13-.55-10.71-.53-6.7.12-13.53-.47-20.12.64-3.95,1.4-3.95,6.88,0,8.3,2.31.9,4.93.32,7.36.12,6.36-.1,12.74-.15,19.1-.02,6.88.84,13.73,1.54,20.68,1.49,5.88.57,11.81.58,17.67,1.23,2.63.53,5.19,1.27,7.74,2.05,4.71,1.42,9.7,1.72,14.39,3.22,3.62,1.16,7.27,2.98,10.32,5.09,1.22.99,2.11,2.38,3.54,3.11,1.54,1.19,4.14.34,4.13-1.61Z"/>
    </g>
    <g>
      <path class="cls-1" d="M150.39,1039.04s-.07-.07-.1-.11c.21-.91.45-1.82.7-2.74,0,0,0,0,0,0,.02-.08.04-.17.07-.25.43-1.54.86-3.06,1.22-4.61.03-.12.05-.23.08-.35.14-.64.27-1.29.37-1.94,0-.03,0-.05.01-.08.1-.68.19-1.37.26-2.06.03-.29.06-.58.08-.86.03-.38.06-.75.09-1.13.06-.88.11-1.76.15-2.64.05-1.38.09-2.76.13-4.14,0,0,0,0,0,0h0c.73-.39,1.45-.79,2.16-1.21,0,0,.01,0,.02,0,.84-.5,1.65-1.03,2.44-1.59.33-.23.65-.48.98-.72.42-.32.85-.63,1.26-.96.32-.26.65-.51.96-.78.54-.45,1.09-.9,1.62-1.37.11-.1.23-.19.34-.29.77-.67,1.52-1.35,2.28-2.03,0,0,0,0,0,0,.03-.02.05-.05.08-.07,1.09-.94,2.21-1.83,3.37-2.67.18-.12.37-.22.56-.34.28-.17.56-.35.84-.51,0,0,0,0,0,0,.64-.38,1.29-.74,1.95-1.09.33-.15.66-.29.99-.43.01-.01.03-.03.04-.04.43-.19.86-.36,1.28-.54.26-.11.52-.23.79-.33.87-.35,1.74-.7,2.63-1.03.57-.17,1.14-.34,1.71-.51,0,0,0,0,0,0,0,0,0,0,0,0,.63-.12,1.26-.25,1.89-.38,2.05-.42,4.09-.95,6.13-1.41.73-.16,1.46-.31,2.19-.46.97-.19,1.95-.38,2.92-.56,2.68-.34,5.36-.63,8.04-.89.04,0,.08-.01.12-.02,1.72-.17,3.44-.33,5.16-.48,2.13-.18,4.26-.27,6.39-.47,2.66-.25,5.3-.54,7.95-.87.83-.1,1.65-.22,2.48-.33,1.57-.21,3.14-.43,4.7-.64h0s0,0,0,0c1.85-.25,3.69-.49,5.54-.68.51-.05,1.01-.09,1.52-.13.04,0,.09-.02.13-.03.65-.06,1.31-.11,1.96-.16,0,0,.01-.01.02-.02.61-.05,1.23-.09,1.84-.14.16-.01.33-.03.49-.04,2.3-.18,4.6-.33,6.9-.44.1,0,.19-.01.29-.02.01,0,.02,0,.03,0,0,0,0,0,0,0,1.32.09,2.64.18,3.96.25.82.05,1.63.09,2.44.15.11,0,.22.02.33.03,0,0,0,0,0,0,.3.02.6.05.89.07.34.02.67.04,1.01.04.05,0,.1,0,.15,0,.39,0,.76-.08,1.1-.22,0,0,0,0,0,0,0,0,0,0,0,0,.66.27,1.4.35,2.11.25.76-.12,1.5-.44,2.08-.99.15-.14.28-.28.4-.44,1.36.71,2.64,1.76,3.75,3.19,1.49,5.76,2.15,15.42-.18,22.85,1.65.46,3.32.86,5.01,1.15,1.51-.28,3.03-.59,4.54-.9-1.85-2.81-1.1-6.78.13-10.77.32-2.82.62-5.64,1.26-8.41.63-2.68,1.65-5.43,3.51-7.49.93-2.49,1.96-5.08,4.05-6.84,1.81-1.71,4.48-2.81,7.13-3.04-.25,1.55-.47,3.11-.55,4.67-.1,1.87.77,3.62,2.15,4.8.32,1.4,1.07,2.61,2.26,3.43.88.6,1.84.85,2.87.99,1.9.25,3.82.42,5.73.59,1.92.17,3.84.32,5.76.46.79.06,1.58.12,2.38.18,2.06.15,4.11.29,6.17.41.01,0,.02,0,.04,0,1.15.07,2.29.13,3.44.18,3.44.15,6.89.23,10.33.39.08,0,.17,0,.25.01,0,0,0,0,0,0,4.22.2,8.41.5,12.61.96,12,3.9,22.66,8.88,25.65,13.01,2.45,2.95,3.84,6.35,4.36,9.92.39,1.56.47,3.18.2,4.8-.76,12.71-11.19,25.83-23.83,27.11-2.06,0-5.58-.13-8.76-.39,2.34-1.06,4.72-2.04,7.12-2.98,1.82-.62,3.63-1.25,5.51-1.69.72-.14,1.44-.27,2.17-.34.54-.02,1.08-.04,1.62-.02.1.01.2.02.31.02,1.01,0,1.85-.88,1.84-1.88-.01-.98-.82-1.78-1.78-1.83-1.05-.11-2.14-.05-3.19.05-1.33.13-2.67.41-3.97.76.51-.53.98-1.1,1.43-1.69-6.54,4.04-17.73,5.38-23.51,5.71-1.78.17-7.91.31-13.04.1-.09.05-.18.1-.28.14-2.74,1.39-5.76,1.96-8.81,2.13-4.08.15-8.16.19-12.25.23-4.97,1.66-10.03,3.01-15.19,3.87-5.71,1.13-10.49.43-13.74-1.33-10.94.62-21.98.41-32.99.77-3.1-.34-6.23-.64-9.39-.93-2.35-.11-4.69-.33-7.02-.64-22.59-2.05-45.91-4.42-65.65-15.3ZM351.51,1041.42c1.05-.3,2.04-.72,2.96-1.29-1.38.08-2.78.12-4.18.16-.07.04-.14.09-.22.14.5.31.98.64,1.44,1Z"/>
      <path class="cls-1" d="M335,1051.81c-.16.32-.26.68-.27,1.04-.7-.3-.73-.64.27-1.04Z"/>
    </g>
    <g>
      <path class="cls-12" d="M131.49,39.68c1.52-5.19,2.25-10.75,6.17-14.83,3.17-3.58,7.41-6.17,11.16-9.12,5.92-4.94,11.37-10.95,18.97-13.25,24.86-5.7,53.45-1.35,75.7,11.03,7.06,4.02,12.29,10.26,18.44,15.43,6.57,5.66,12.94,11.67,16.57,19.72,10.25,22.32,17.45,45.75,20.54,70.14.92,12.21,1.67,24.44,2.68,36.66-.08,10.31-1.41,20.58-.14,30.9,1.4,33.17,1.04,65.59-1.96,98.65-2.54,34.12.07,68.33-1.74,102.43-.61,8.3-.75,16.59-1.03,24.89-.45,9.67-3.14,19.07-3.25,28.74,2.05,11.4,1.54,22.85.28,34.32-2.15,16.36-.1,32.81-.57,49.23,1.09,13.86,4.01,30.34-6.98,40.98,8,35.81,9.7,72.73,11.83,109.3,2.59,56.76,2.99,113.71-1.04,170.43-3.22,32.02-5.49,64.16-6.97,96.31-1.36,8.96.59,24.29-.75,36.87.31,1.76.51,3.54.51,5.35-.15,1.04-.26,2.08-.32,3.13-.03.53.02,1.06.14,1.56-.65,8.1-3.27,16.37-8.47,22.61-.33,3-.93,5.92-2.12,8.64-11.45,11.66-17.03-13.79-14.55-21.71.26-1.7.61-3.38,1-5.05-.4-6.01.25-12.15,1.52-17.73.71-1.72,1.69-6.07,3.42-8.27-.25-10.48-.51-20.95-.88-31.42-.52-30.27-2.58-60.54-.91-90.8,2.69-53.45,3.3-106.92,5.48-160.39,1.63-41.38,6.73-82.54,8.01-123.93-2.52-6.38-3.98-13.18-4.07-20.05-3.34-22.55-.85-45.15,1.18-67.66,1.85-12.39-.35-24.69.45-37.06,4.47-24.42,5.31-49.51,4.77-74.31-1.93-15.98-1.81-32.08-2.37-48.14-.33-17.04-3.12-33.97-2.51-51.01-.81-21.88.38-43.73-.11-65.62-.08-14.38-4.65-28.14-6.92-42.21-2.54-17.42-2.57-35.06-6.64-52.29-2.81-14.89-8.85-28.8-14.06-42.96-5.44-11.04-15.98-18.5-23.45-28.13-12.59-10.42-29.05-16.03-45.33-16.55-12.19-1.21-16.23,4.28-25.53,10.2-4.7,3.11-11.25,4.39-14.18,9.55-1.76,4.51-4.05,8.31-6.28,12.63-.63,2.81-2.83,9.35-6.61,6.22-2.71-4.28-1.05-9.23.93-13.43Z"/>
      <path class="cls-12" d="M276.67,1051.47c8.67.84,17.38-.96,26.01-1.72,5.27-.64,10.64-1.07,16-1.4,5.79-2.56,12.41-2.65,18.58-3.92,3-.77,5.98-1.65,9.02-2.32,3.16-.84,6.54-1.04,9.55-2.38,2.21-1.12,3.89-2.99,5.77-4.57-.15,2.13-.75,4.21-1.77,6.03.38-.06.76-.11,1.15-.17,2.49-1.86,4.92-3.77,6.61-6.44,1.46-2.02,2.82-4.51,4.5-6.63.36,4.46-.75,8.1-2.9,11,1.18.94,1.16,2.85.66,4.47,0,0,0,0,0,.01-.73,11.3-15.08,15.7-24.7,16.25-.12,0-.25,0-.37,0-8.44,3.95-18.73,4.32-27.84,4.85-6.26.23-12.53-.05-18.78-.56,1.21-.14,2.43-.26,3.65-.38.37-.07.74-.15,1.11-.22-1.13.11-2.26.2-3.34.27,1.54-.33,3.09-.64,4.64-.96-.88-.03-1.76-.08-2.59-.17,7.28-.89,14.38-2.71,21.53-4.29-.38-.06-.76-.14-1.14-.22-5.31,1.98-11.16,2.69-16.8,3.17-4.14.36-8.44.43-12.54.29,2.75-.45,5.54-.77,8.34-1.08-2.4.06-4.8,0-7.15-.52.16-.07.43-.03.65-.06,7.85-1.3,15.64-2.94,23.45-4.31-1.65,0-2.81-.76-3.25-1.83-4.1.54-8.22.95-12.36,1.07-3.07.11-6.28.35-9.3-.03.99-.33,1.98-.66,2.98-.98-6.56.1-13.21-.21-19.33-2.23ZM337.84,1059.62c-.7-.03-1.4-.06-2.08-.11-1.07.38-2.16.71-3.27,1,1.79-.26,3.57-.56,5.35-.88ZM325.58,1054.24c.88-.47,1.75-.9,2.62-1.33-.32.03-.63.06-.95.1-2.33.68-4.7,1.23-7,2-.14.05-.27.08-.41.12,1.91-.32,3.82-.62,5.73-.89Z"/>
      <path class="cls-12" d="M247.46,1058.32c3.65.36,7.9-1.44,11.52-.18-5.45.55-10.65,3.57-16.4,3-8.69-.95-17.65-1.44-26.16-3.2,10.39-1.42,20.67-.39,31.04.38Z"/>
      <path class="cls-12" d="M157.71,1025.94c.26-1.21.63-2.45,1.13-3.73.7-4.73.68-5.25,1.33-.1-.4,3.5-.1,6.55.75,9.25.29.53.58,1.06.88,1.59,10.35,6.96,22.59,11.69,34.35,15.23-4.51.12-9.88-.12-15.23-.99,8.41,2.05,16.56,5.63,25.28,6.6,1.86.21,22.25,3.8,15.15,3.46-16.58.34-28.75-1.73-43-10.53-1.59-.33-3.16-.71-4.7-1.17,2.12,1.31,4.38,2.53,6.69,3.71-5.72-.36-11.11-2.07-15.25-4.93-9.84-1.56-15.33-10.72-9.02-20.46.6.66,1.14,1.36,1.65,2.08Z"/>
    </g>
    <g>
      <path class="cls-4" d="M121.49,109.41s.08-.03.12-.04c-.54-.58-1.02-1.25-1.39-2.02.72-.19,1.48-.38,2.27-.56-6.79-12.42-5.34-30.7-.76-43.44,2.07-5.45,3.49-9.63,4.47-12,2.55-6.88,6.81-16.27,6.61-9.45.41-.85.83-1.69,1.24-2.52-.36-.16.06-.18.25-.13.32.5.56,1.03.75,1.59.12-.26.22-.52.35-.77.13.71.24,1.43.34,2.14.36-1.1.74-2.18,1.12-3.26,1.48,12.18,1.63,24.72.38,37.07.11.31.2.63.29.97,2.71,8.34,1.83,17.27,2.7,25.89.17,3.72,1.63,9.56-3.56,10.29-2.06.39-3.19-.27-3.82-1.42-.78.22-1.59.38-2.41.46-.75.14-1.61.27-2.65.39-1.94.64-10.94-2.5-6.3-3.18Z"/>
      <path class="cls-4" d="M268.1,818.66c1.55-20.85,4.11-41.61,5.55-62.46.72-10.38.98-20.77,1.3-31.16.32-10.34.75-20.66,1.14-31,.02-.49.03-.98.05-1.48-10.82-56.9-.52-115.97,6.01-173.21.24,1.15.47,2.31.71,3.46.11-4.06.23-8.14.82-12.15.07-.41.7-.66,1.02-.42.05-.44.11-.87.16-1.31,0,0,.02-.02.02,0,.52,5.61.9,11.24,1.24,16.87.35,2.97.73,5.93,1.1,8.9-.05-3.42-.15-6.84-.33-10.24-.07-1.32-.2-2.67-.14-4,.17,1.65.43,3.5.69,5.21.05.43.09.86.14,1.29,0-.03,0-.06,0-.1.81,6.42,1.45,12.89,1.95,19.39,1.08,11.94,1.91,23.92,2.35,35.9,4.57,46.36,3.31,94.52-7.33,139.61-.15,8.84-.36,17.69-.32,26.54.03,2.43.05,4.86.12,7.29.59,20.59,2.04,41.13,2.6,61.72.29,10.52.36,21.05.29,31.58-.07,9.96-.25,19.9-.83,29.85-1.07,18.16-2.32,36.3-2.91,54.49-.12,3.73-.37,7.47-.48,11.21-.04,1.1-.09,2.2-.13,3.3-.14,3.56-.64,7.1-1.35,10.59.52.87.8,1.95.71,3.24.12,4.94,2.87,17.93,2.53,27.8,2.95.9,5.03,3.22,4.43,7.19-.02.1-.05.19-.08.29.85,5.77-1.53,14.01-9.58,15.96-13.37,2.32-13.17-8.93-10.69-21.03-2.88-8.87-3.99-18.68-1.18-27.22-.19-.86-.4-1.71-.56-2.58-.84-4.41-1.23-8.8-1.2-13.29.01-1.35.03-2.7.05-4.05.12-12.64.19-25.29.09-37.93-.08-6.2-.2-12.4-.26-18.6-.05-2.97-.11-5.94-.13-8.92-.08-9.82.2-19.63.62-29.44.46-10.38,1.02-20.75,1.79-31.11Z"/>
    </g>
    <g>
      <path class="cls-3" d="M292.81,617.45c.62-16.91,1.05-33.82,1.9-50.71.68-13.71.1-27.49-1.69-41.1-.19-.73-.37-1.91-1.26-2.13-.1-.05-.25,0-.29.11-.24.86-.43,1.93-.45,2.76.23-.85.38-1.71.71-2.51.07.04.13.08.2.12.4.77.39,1.66.47,2.5.04,4.75-.21,9.54-.56,14.28-.46,7.56-1.48,15.07-2.44,22.59-.43-2.71-.93-5.41-1.56-8.08.5,4.65.74,9.31.82,13.99-.42,3.58-.8,7.16-1.06,10.76-.92,11.74-1.14,23.52-.88,35.3-.38,8.59-.5,17.17.12,25.71,1.63,39.14,10.58,77.87,10.23,117.04,3.28-42.97-3.61-85.84-4.83-128.77.2-3.95.4-7.9.56-11.85Z"/>
      <path class="cls-3" d="M287.98,147.56c-.09,9.37-.39,18.77.41,27.96,1.13,21.22,5.71,42.12,10.7,62.64-4.23-28.9,1.12-74.62-6.13-106.91,1.38-18.47-2.81-55.12-13.25-63.98-1.17-3.98-2.85-7.27-5.57-8.62,1.76,1.77,2.89,4.33,3.62,7.34-1.35-.65-2.8-.86-4.33-.53,2.64-.04,4.14,1.7,5.04,4.27,1.26,8.9.42,20.09,2.32,27.01,2.8,16.87,5.37,33.83,7.19,50.83Z"/>
      <path class="cls-3" d="M139.71,41.49c-.7,0-1.39.32-1.77.89-1.99,2.61-2.83,5.68-2.5,8.84.07.79-.07,1.99.27,2.82-2.39,18.75-5.55,38-.26,56.48-.01-4.34.13-8.85.34-13.42.23,1.82.47,3.64.76,5.45,1-4.24,1.71-8.51,2.25-12.8.54-.44.86-1.08.88-1.77.18-2.22.32-4.43.33-6.65.24-1.98.17-3.93,0-5.88.56-10.5.63-21.06,1.51-31.51.16-.41.23-.82.1-1.2.16-1.76.33-3.52.55-5.27-.92-1.63-1.92,1.93-2.45,4.03Z"/>
    </g>
    <g>
      <path class="cls-2" d="M243.88,40.76c12.28,7.99,18.21,23.74,18.01,38.01-5.4-12.92-13.4-24.77-18.01-38.01Z"/>
      <path class="cls-2" d="M284.16,264.75c.56,12.08.96,24.16,1.54,36.24,1.97,26.87,2.6,53.9.99,80.8,0,.3,0,.61,0,.91.01,20.28-.29,40.56-.68,60.84-.56,28.41-1.43,56.82-1.49,85.23,0,1.79.02,3.57.02,5.36.04,14.11-.07,28.22-.31,42.33-.22,13.77-.7,27.53-1.16,41.29-.24,7.11-.5,14.21-.91,21.3-.42,7.36-.94,14.72-1.35,22.08-.77,14.04-1.33,28.1-2.01,42.14-1.37,28.22-2.5,56.46-3.75,84.68-.63,14.16-1.29,28.31-1.92,42.46-.63,13.85-1.07,27.71-1.58,41.57-.53,14.04-1.22,28.08-1.71,42.12-.47,13.58-.77,27.17-1.18,40.76-.16,5.38-.33,10.75-.48,16.13,2.49,6.83,1.77,14.87-.51,21.86-.02.95-.06,1.9-.09,2.85.34,0,.66.06.78.24-.15.87-.32,1.79-.5,2.74.1.07.18.16.25.26.5,1.6.78,3.27,1.04,4.94.53,1.26,1.12,2.51,1.81,3.72,4.22-.21,8.62,1.4,9.93,3.41.3.02.59.03.89.05.4.02.87-.06,1.27-.08-.54.53-1.15.96-1.78,1.34-.05.74-.58,1.49-1.72,2.19-.15,1.5-1.53,2.5-3.14,3.15-.78.48-1.61.89-2.44,1.22,0,0,0,0,0,0,1-.14,1.98-.73,2.76-1.34-.46.93-1.2,1.67-2.09,2.26.12.34.13.72.02,1.1-.74,2.22-3.82,1.56-5.01.04-.28-.29-.54-.61-.8-.91-.91.02-1.81-.06-2.7-.25-.1.85-.2,1.7-.31,2.55-.15-.9-.27-1.81-.39-2.72-5.85-1.62-10.49-7.53-7.87-13.77.55-.96,1.35-1.37,2.13-1.36.09-3.68.19-7.37.32-11.07.17-.11.34-.24.49-.39,1.63-1.52,1.67-4.46-.22-5.84,0,0-.02-.01-.02-.02.48-11.72.84-23.44,1.22-35.16.44-13.64,1.01-27.29,1.33-40.94.33-13.95.53-27.91.89-41.86.37-13.88.72-27.76.97-41.64.51-28.2.95-56.4,1.52-84.6.29-14.21.48-28.42.67-42.62.18-13.88.53-27.76.56-41.64,0-2.69-.02-5.39-.02-8.08,0-7.22.02-14.44.17-21.66.15-7.13.38-14.26.59-21.39.39-13.8.91-27.6,1.61-41.39.5-9.83,1.11-19.66,1.72-29.49-.27-9.26-.52-18.52-.73-27.78-.41-18.57-.72-37.15-.97-55.73-.24-18.39-.5-36.77-.65-55.15-.15-18.51-.36-37.02-.58-55.54-.22-17.96-.37-35.93-.51-53.89-.14-17.93-.07-35.85-.18-53.78-.11-17.69-.21-35.39-.33-53.08-.05-7.77-.07-15.53-.04-23.29,0-1.74,0-3.47,0-5.21-.49-.46-.78-1.1-.79-1.75-.29-3.44,0-6.9.15-10.34.2-3.07.44-6.16.95-9.2.02-.58.22-1.08.54-1.47-1.23-13.79-1.53-27.76-2.53-41.21-1.25-5.52-2.58-11.02-4.03-16.46.58,1.55,1.15,3.1,1.7,4.66-.27-1.88-.47-3.77-.6-5.68-.28-1.06-.56-2.13-.87-3.18,3.85,7.22,5.92,15.14,7.37,23.18.68,1.87,1.38,3.73,2.08,5.57,4.94,14.14,6.64,29.17,7.38,44.05-.71-3.21-1.43-6.42-2.16-9.65.88,6.07,1.56,12.15,2.08,18.24,2.12,14.4,2.76,28.96,4.03,43.45.94,10.7,2.13,21.38,2.93,32.09.87,13.48.94,26.99,1.4,40.48-.82-7.91-1.51-15.91-2.29-23.9-.08,2.71-.27,5.41-.51,8.11,0,4.83-.07,9.65-.2,14.47ZM275.84,232.4c0-.18-.01-.35-.01-.53,0,.19,0,.38,0,.56,0-.01,0-.02,0-.04ZM282.78,336.36c0,.05,0,.1,0,.15,0-.03,0-.06,0-.09,0-.02,0-.04,0-.07ZM277.94,152.69c-.1-2.21-.2-4.42-.3-6.61-.9-4.05-1.76-8.11-2.6-12.18,1.07,6.25,2.04,12.52,2.9,18.8Z"/>
      <path class="cls-2" d="M260.31,987.19s0,0,0,0c.04.04.08.07.12.11-.04-.03-.08-.07-.12-.1Z"/>
      <path class="cls-2" d="M123.59,57.62c.06-.79.13-1.58.23-2.37-1.23-1.18-.6-3.02-.41-4.46.16-1.08.27-2.17.39-3.25.44-4.69,1.53-9.43,4.68-13.28,1.94-3.07,4.78-5.31,7.63-7.7,2.43-1.67,5.78.67,4.6,3.23-8.81,10.27-9.75,23.75-12.22,36.1-.32,1.11-1.57,1.83-2.79,1.68-.01,0-.02,0-.03,0-.61,2.61-1.16,5.24-1.66,7.89-1.7,12.14-3.12,24.33-4.11,36.52-2.66-18.14-1.67-36.8,3.7-54.37Z"/>
      <path class="cls-2" d="M124.06,107.34c.82-.66,2.65-1.06,5.88-.9,6.9-1.39,16.06,4.37,4.42,6.71-4.32.76-9.66-1.9-10.66-4.1-.41-.48-.77-1.01-1.06-1.58.48-.06.95-.1,1.43-.13Z"/>
      <path class="cls-2" d="M149.56,1043.96c.07-.94.15-1.88.25-2.82.16-.79.33-1.58.52-2.37-.14-5.5,1.03-10.95,2.01-16.82.22-1.08.36-2.2,1.04-3.1,1.15-1.52,4.88-1.95,5.2.5.16,2.54-.73,5.03-1.07,7.53-.05,2.39.22,4.77.61,7.13.16,1.2.5,2.3.97,3.31,6.81.71,13.62,2.68,20.18,4.68,23.98,2.96,47.15,11.1,71.08,13.49,26.16-1.05,52.78-1.01,78.47-6.45,13.23-3.62,26.16-5.51,40.06-6.34.72.32-.35.83-.63,1.18h0s-.02.02-.02,0c-.02-.06-.03-.12-.02-.2-31.82,21.33-70.04,23.46-107.23,27.5-3.39.45-6.76.65-10.1.65-4.8,0-9.56-.41-14.29-1.07-6.97,1.8-15.72,1.84-23.14,1.75-7.38.4-14.69-.11-21.63-2.68-6.45-.25-12.7-1.34-17.91-4.35-3.25-.69-6.18-2.09-8.09-4.99-.57-.65.04-2.62.78-1.66-.19-.27-.38-.54-.56-.82-.7-.14-1.39-.29-2.08-.45.02.15.03.29.05.46,0,0-.02.01-.02,0-.15-.19-.27-.37-.39-.55-1.4-.33-2.77-.69-4.12-1.09-.04-.04-.07-.08-.1-.12-.14-.17-.28-.35-.43-.53.48,1.15,1.16,2.21,2.17,3.09-4.43-.7-6.83-4.94-8.26-8.81-.44-.98-.79-1.95-1.1-2.91-.73-.82-1.46-1.64-2.18-2.48,0-.23.01-.45.02-.68ZM334.82,1053.63c.31,1.07,1.37,1.84,2.47,1.84.33,0,.66-.07.98-.23,3.27-1.62,6.64-3.03,10.04-4.36,1.82-.62,3.63-1.25,5.51-1.68.72-.14,1.44-.27,2.17-.34.35-.02.7-.02,1.04-.02.19,0,.38,0,.57,0,.1.01.2.02.31.02,1.01,0,1.85-.88,1.84-1.88-.01-.98-.82-1.78-1.78-1.84-1.05-.11-2.14-.05-3.19.06-1.63.16-3.3.55-4.87,1.01-1.53.45-3.05.91-4.57,1.41-2.93.96-5.82,2.05-8.79,2.89-1.32.38-2.11,1.8-1.74,3.11Z"/>
    </g>
  </g>
</svg>