<?xml version="1.0" encoding="UTF-8"?>
<svg id="Layer_2" data-name="Layer 2" xmlns="http://www.w3.org/2000/svg" viewBox="0 0 318.76 1073.99">
  <defs>
    <style>
      .cls-1 {
        fill: #f2d56c;
      }

      .cls-2 {
        fill: #bf913b;
      }

      .cls-3 {
        fill: #fde99d;
      }

      .cls-4 {
        fill: #6a7d75;
      }

      .cls-5 {
        fill: #fff;
      }

      .cls-6 {
        fill: #beded3;
      }

      .cls-7 {
        fill: #fefaee;
      }

      .cls-8 {
        fill: #ede4c8;
      }

      .cls-9 {
        fill: #a8cbbf;
      }

      .cls-10 {
        fill: #e6c23a;
      }
    </style>
  </defs>
  <g id="Lamp">
    <g>
      <path class="cls-7" d="M222.04,82.73c-1.77-7.57,7.92-5.17,11.87-4.93,18.99,4.13,70.75-10.93,77.53,10.59-28.25-2.88-57.69-3.65-86.16-7.66-1.66-.46-2.36.75-3.24,2Z"/>
      <path class="cls-7" d="M275.69,241.1c-44.21-2.79-89.3-3.48-132.24-14.51-24.99-2.1-13.33-61.48-14.37-80.33.83-15.41,2.99-37.21.77-49.55-.21-1.5,1.09-1.97,2.23-1.67-.21-.73-.48-.67-1.13-.37,20.22-22.14,58.37-15.18,85.44-12.83-26.66,4.28-54.85,0-79.72,11.53,1.23,2.23-1.2,3.77-3.12,2.87,0,1.68-.18,3.07.35,4.78.19-.4.34-.68-.15-.9,1.37-.04,1.52-1.99,1.48-3.11,13.5-2.34,28.89,6.72,42.98,10.79,11.13,2.57,30.77-3.91,36.7,4.13,1.01.95,2.67.81,3.52-.25,6.17-8,26-.64,37.15-4.5,17.79-4.97,36.81-3.79,54.34-8.76.12-5.51-.33-7.96,1.83-1.29,2.83-2.31,5.07-5.84,2.59-9.4,4.88,2.32,5.22,8.55,1.11,12.13-1.16,36.44.55,81.63,3.1,120.88,3.06,25.52-27.46,16.61-42.86,20.36Z"/>
    </g>
    <g>
      <path class="cls-6" d="M181.01,96.65c7.36.11,14.7-.09,22.07-.37-1.79.24-3.57.55-5.35.96,4.61-.18,9.26-.08,13.9.23-2.22.43-4.44.89-6.64,1.43,11.36,4.38,10.41-3.5,11.68-12.61-7.37,3.89-48.87,1.11-35.66,10.37Z"/>
      <path class="cls-6" d="M309.39,90.06c-3.55-4.32-10.69-4.08-10,2.7-11.95-5.85-27.54-8.23-39.74-3.31,3.05-9.99-57.62-5.96-33.5,5.91-4.7-1.52-9.31,5.1-4.12,6.02-6.1-1.03.54,10.54-5.4,11.21-9.71-13.02,9.39-11.96-20.56-10.62,2.94-.3,5.87-.65,8.81-.96-14.1-2.94-31.23,2.03-42.98-7.88,1.75,2.23,3.96,4.04,6.31,5.36-6.9.05-13.7-1.7-20.54-1.7.02.01.04.02.06.03-1.06.37-6.12-.64-4.47-1.29-.77-.39-.93.39-1.5.05.29-.09.7-.09.93-.2-4.61-.9,3.25,6.71,4.88,8.02-2.16-.74-4.13-1.46-4.46-2.63,24.77,17.89,63.67,13.84,93.96,12.11,15.64,1.06,87.69,5.81,72.34-22.81ZM295.18,100.89c-.33.15-.73.12-1.1.21.35-.11.74-.13,1.1-.21ZM284.3,102.95c-9.52,1.87-11.03,3.15-18.75,2.65,6.49-.85,12.97-1.87,19.42-2.96-.23.1-.45.21-.68.31ZM249.83,101.98c-1.81.01-3.62,0-5.43-.03,5.69-.35,11.4-.6,17.09-.96-3.87.49-7.76.86-11.67.99ZM295.03,96.22c-7.65,1.02-15.24-.91-22.88-1.87,7.53-1.56,15.73-1.45,22.88,1.87ZM275.63,92.36c-4.6-.56-13.46,1.06-15.96-1.82,5.16-.74,10.66.85,15.96,1.82ZM159.48,100.97c5.41.52,10.82,1.17,16.27,1.27-4.76,2.17-11.18.14-16.28-1.27,0,0,.01,0,.02,0Z"/>
    </g>
    <g>
      <path class="cls-5" d="M159.39,203.45c-.12-21.61.62-43.8-3.83-65-2.24,21.7-.7,43.75,3.83,65Z"/>
      <path class="cls-5" d="M171.99,151.97c-5.26-53.33-7.04,69.03-1.54,82.61,3.4-27.42,6.65-55.08,1.54-82.61Z"/>
      <path class="cls-5" d="M191.44,199.61c2.67-19.46.88-39.26-.14-58.82-3.16,19.3-1.86,39.37.14,58.82Z"/>
      <path class="cls-5" d="M207.79,153.52c-7.37,21.57-1.72,45.54.27,67.74,6.26-28.56,8.84-36.61,2.11-66.33-.47-4.11.53-6.53-2.38-1.41Z"/>
      <path class="cls-5" d="M224.44,136.95c-2.27-4.19-4.65,11.4-2.13,4.18-3.63,30.66-.49,61.62.86,92.33,4.3-31.87,5.59-64.47,1.27-96.51Z"/>
      <path class="cls-5" d="M251.14,141.03c1.56,27.64.25,55.24-.14,82.87,3.53-27.46,3.89-55.44.14-82.87Z"/>
      <path class="cls-5" d="M266.09,127.39c-1.87,19.88,3.97,41.69,4.11,62.15,3.25-20.84-2.89-41.76-4.11-62.15Z"/>
      <path class="cls-5" d="M266.1,127.3s0,.06,0,.08c.23-.15.49-.23.83-.18-.22.04-.56-.07-.82.1Z"/>
      <path class="cls-5" d="M286.69,133.16c-5.89,28.78-.47,59.01-.27,88.26,7.69-29.08,3.33-58.88.27-88.26Z"/>
      <path class="cls-5" d="M303.71,122.78c-6.75,24.92.66,52.99-1.99,78.73,8.32-25.58,2.21-52.84,1.99-78.73Z"/>
      <path class="cls-5" d="M313.03,133.81c-.24-1.71.07-4.92-1.34-5.64-3.75,23.81-6.69,48.16-4.98,72.88,4.38-13.92,5.98-28.89,6.14-43.62,0,.11,0,.23,0,.34.12-8.04.3-15.9.19-23.96Z"/>
    </g>
    <g>
      <path class="cls-9" d="M163.28,87.48c-6.76,2.27-13.68,3.05-20.61,4.36-2.39,1.45-1.03,4.17,1.05,5.42-.5,7.4,7.73,11.18,14.07,11.71-.41-.53-.83-1.06-1.25-1.59,1.33.2,2.64.34,3.88.44-.11.25-.19.52-.22.81,16.43,3.48,32.71,11.21,50.27,7.33-9.52-1.57-19.04-3.65-28.24-6.69.73-.21,1.45-.44,2.16-.71-1.95-.9-3.96-1.82-6.02-2.6,5.33-2.58,10.81-.82,16.41.04-2.87.57-5.71,1.35-8.47,2.39,17.46.47,47.68-3.26,10.01-7.59,8.25-.58,20.36,4.81,19.29-7.32-10.4,1.13-21.06.75-31.56.57,10.08-4.25,32.56,4.52,32.81-8.86-17.93,1.12-35.89-.45-53.57,2.28ZM159.35,104.15s-.02.02-.04.02c.6-1.6,2.77-1.67,4.33-1.65-1.44.43-2.88.96-4.3,1.62ZM158.36,102.75c.05.16.11.32.18.48-.26-.17-.58-.36-.95-.55.26.03.51.06.77.07ZM154.48,104.82c2.19.03,4.48-.1,4.69-.46.7.89,2.33.99,3.38,1.45-2.12,1.18-6.15.31-8.07-.99Z"/>
      <path class="cls-9" d="M303.09,96.87c1.05-2.14-2.13-2.77-3.54-2.78,2.52-15.13-51.3-7.58-62.79-9.46-38.61,3.54,3.65,10.06,18.81,8.39-10.58,3.51-33.79-5.47-35.56,6.54,6.05,4.76,23.91-.16,33.89,1.71-92.51,6.23,26.22,10.85,49.19-4.4ZM286.42,91.54c-7.9,1.22-15.88-.84-23.82-.96,7.95.03,15.91.14,23.82.96ZM282.99,99.63c-6.54-.01-13.11.2-19.56-1.03,10.69-.3,21.42-.93,31.98-2.05-4.11,1.15-8.24,2.3-12.42,3.08Z"/>
      <path class="cls-9" d="M213.91,108.04c-6.3.87-12.69.89-18.97,2,5.84-.55,14.28.91,18.97-2Z"/>
      <path class="cls-9" d="M219.22,109.6c0,.12,0,.24-.02.35.21-.12.43-.24.64-.37-.19.01-.41-.01-.61.02Z"/>
      <path class="cls-9" d="M213.89,109.73c-5.82.19-13.38,1.03-15.24,3.85,5.25-.62,10.87-.32,16.09-1.8-.52-.52-.85-1.25-.85-2.05Z"/>
      <path class="cls-9" d="M198.6,113.59s0,.05,0,.08c.02-.03.03-.06.05-.08-.01,0-.03,0-.04,0Z"/>
      <path class="cls-9" d="M198.59,113.67s-.04.04-.02.05c.01,0,.01-.02.02-.05Z"/>
      <path class="cls-9" d="M251.44,110.09c-10.13,1-20.3.48-30.47,1.37,14.19,1.07,28.56,1.77,42.34-2.7-3.9.42-7.92.96-11.87,1.33Z"/>
      <path class="cls-9" d="M282.71,242.44c-10.62.26-21.16,1.03-31.64,2.99,10.48-.32,21.32-1,31.64-2.99Z"/>
      <path class="cls-9" d="M297.29,242.4c4.18-1.23,8.87-1.94,12.2-5.29-4.37,0-10.01.45-12.2,5.29Z"/>
    </g>
    <path class="cls-3" d="M74.01,634.91c-1.64-29.04-.21-58.24-.46-87.2,2.77,28.92,1.59,58.27.46,87.2Z"/>
    <path class="cls-3" d="M74.9,671.86c2.26-43.92-10.39-113.31-.1-144.84-1.37,34.92,8.99,99.86.1,144.84Z"/>
    <path class="cls-3" d="M69.28,758.7c-.66-67.3,3.57-135.86,8.41-202.8,3.19,67.8-3.84,135.22-8.41,202.8Z"/>
    <path class="cls-3" d="M74.58,140.89c-4.83-11.66.03-78.59,16.24-74.81-7.5-.11-4.93,16.98-7,22.95-2.75,17.32-7.68,34.43-9.24,51.87Z"/>
    <path class="cls-3" d="M75.77,171.38c-3.08-36.17-1.04-80.09,14.4-112.11-9.05,33.8-10.37,76.19-14.4,112.11Z"/>
    <path class="cls-3" d="M67.45,238.78c4.96-37.17-4.54-102.19,14.56-130.64-9.06,42.57-.98,88.27-14.56,130.64Z"/>
    <path class="cls-3" d="M216.5,111.15c.05-20.15-2.87-43.7-.77-62.25,0-.02-.01-.04-.01-.06h0c-.02-.06-.04-.11-.08-.16,2,20.6,6.23,42.02.85,62.47Z"/>
    <path class="cls-3" d="M215.5,103.18c-4.59-21.31-2.7-43.51-5.12-65.09,8.76,17.16,7.49,44.61,5.12,65.09Z"/>
    <path class="cls-3" d="M217.92,96.53c-3.88-16.24-6.28-33.1-5.75-49.92,5.32,12.95,4.63,34.69,5.75,49.92Z"/>
    <g>
      <path class="cls-8" d="M139.27,120.34c45.52,15.4,96.08,11.23,142.89,4.11-1.46,4.23-.43,9.15,1.36,13.17.89-24.97,22.82-11.22,33.73-30,.32-2.45-1.91-5.6-3.6-2.73-25,20.91-64.6,16.67-95.71,19.09-16.4-2.32-82.22,1.13-76.44-20.43-13.22-13.85-18.12,13.48-2.22,16.79Z"/>
      <path class="cls-8" d="M184.82,149.85c1.55-2.41.57-5.63-.38-8.12-3.89,1.57-2.36,6.15.38,8.12Z"/>
      <path class="cls-8" d="M184.66,179.44c1.46-2.61,1.33-5.95.02-8.64-1.51,2.59-1.28,5.95-.02,8.64Z"/>
      <path class="cls-8" d="M185.04,192.82c-4.62-1.12-5.34,5.82-1.58,7.89,3.76.27,4.01-6.01,1.58-7.89Z"/>
      <path class="cls-8" d="M184.37,225.56c1.1-1.73.99-4.2.2-6.04-1.25,1.76-1.19,4.15-.2,6.04Z"/>
      <path class="cls-8" d="M197.96,143.58c-.41,1.81.66,3.64,1.93,4.71,3.47-1.6-.18-10.54-1.93-4.71Z"/>
      <path class="cls-8" d="M199.81,157.59c-2.87,8.44,5.01,10.33,1.12.12-.39-.09-.72-.43-1.12-.12Z"/>
      <path class="cls-8" d="M199.43,191.28c3.67,1.05,4.03-4.25.81-5.18-3.76-.91-4.18,4.2-.81,5.18Z"/>
      <path class="cls-8" d="M200.21,219.85c4.54-.15,3.62-7.02.33-8.68-5.06-.71-4.41,7.48-.33,8.68Z"/>
      <path class="cls-8" d="M204.9,230.48c-.77-4.02-8.35-4.64-7.67.34.77,4.02,8.35,4.64,7.67-.34Z"/>
      <path class="cls-8" d="M166.16,132.72c-.94,1.33-.58,3.18.45,4.32,1.23-.71,1.24-4.9-.45-4.32Z"/>
      <path class="cls-8" d="M166.88,165.69c1.19-3.16.98-6.9-.71-9.86-.41,3.21-.19,6.71.71,9.86Z"/>
      <path class="cls-8" d="M165.87,190.46c1.07-.48,1.63-2.02,1-3.14-1.68-.08-2.38,2.04-1,3.14Z"/>
      <path class="cls-8" d="M167.65,218.67c2.11-2.3.4-5.59-.45-8.11-4.14,1.13-2.28,6.36.45,8.11Z"/>
      <path class="cls-8" d="M160.14,227.82c1.13,5.84,12.14,6.75,11.14-.5-1.13-5.84-12.14-6.75-11.14.5Z"/>
      <path class="cls-8" d="M148.81,126.76c-2.34,5.53-2.14,12.07-.26,17.73.82-5.81.49-11.89.26-17.73Z"/>
      <path class="cls-8" d="M147.95,180c-.39-4.73-.11-9.68.09-14.5-2.31,4.45-2.44,9.97-.09,14.5Z"/>
      <path class="cls-8" d="M149.43,194.4c-3.46,5.04-1.2,11.91.61,17.25,1.6-5.71-.68-11.49-.61-17.25Z"/>
      <path class="cls-8" d="M151.78,224.43c-1.17.28-1.8,1.76-1.02,2.83,1.07-.33,1.66-1.8,1.02-2.83Z"/>
      <path class="cls-8" d="M138.97,132.33c-2.7,5.98,0,15.12.16,21.96,3.11-8.36.9-13.94-.16-21.96Z"/>
      <path class="cls-8" d="M139.76,177.69c1.51-4.13,1.04-9.03-.28-13.16-2.77,3.95-2.37,9.28.28,13.16Z"/>
      <path class="cls-8" d="M139.4,190.13c-3.13,1.65-2.55,6.16-.36,8.47,2.21-2.18,2.17-5.99.36-8.47Z"/>
      <path class="cls-8" d="M138.34,215.89c.56-1.37,1.03-3.13.95-4.64-.85,1.36-1.34,3-.95,4.64Z"/>
      <path class="cls-8" d="M235.74,142.57c1.93-3.05.05-6.34-.64-9.43-3.32,1.91-1.18,7.01.64,9.43Z"/>
      <path class="cls-8" d="M235.57,155.24c-1.01,1.41-.86,3.37.28,4.62.74-1.38.53-3.33-.28-4.62Z"/>
      <path class="cls-8" d="M237.21,176.85c-.46.98-.53,2.38-.1,3.4.53-1.06.54-2.3.1-3.4Z"/>
      <path class="cls-8" d="M235.79,191.73c-.18.69-.09,1.3.15,1.96.74-.94,1.3-2.25,1.2-3.51-.51.35-1.17.88-1.35,1.55Z"/>
      <path class="cls-8" d="M237.96,207.21c-4.37,2.29-1.98,7.61.4,10.61,1.33-3.44-.72-7.02-.4-10.61Z"/>
      <path class="cls-8" d="M237.64,242.03c1.23-4.31,1.42-9.18.59-13.6-1.43,4.37-1.61,9.1-.59,13.6Z"/>
      <path class="cls-8" d="M249.34,142.11c-1.48,9.55-1.46,19.24-.64,28.86.79-9.48.7-19.33.64-28.86Z"/>
      <path class="cls-8" d="M248.78,181.35c-.42-.48-.4.38-.48.68.11-.07.16-.37.26-.5-.68,11.29-1.05,22.67.68,33.92.97-11.16,2.36-23.08-.46-34.1Z"/>
      <path class="cls-8" d="M248.79,237.84c1.48-3.98,1.87-8.62,1.09-12.86-2.41,3.82-2.86,8.62-1.09,12.86Z"/>
      <path class="cls-8" d="M259.91,236.7c2.57-8.95,2.08-18.74.39-27.83-1.5,9.65-2.82,18.94-.39,27.83Z"/>
      <path class="cls-8" d="M260.1,151.54c-.57,10.2.06,20.64.74,30.86,5.57-9.82,3.23-20.87-.74-30.86Z"/>
      <path class="cls-8" d="M273.61,128.55c-2.5,8.67-.53,17.92,1.02,26.62,2.03-8.78.44-17.85-1.02-26.62Z"/>
      <path class="cls-8" d="M272.79,217.01c.52-4.73.74-9.84.75-14.61-1.14,4.79-1.47,9.72-.75,14.61Z"/>
      <path class="cls-8" d="M273.14,239.67c1.67-3.27,1.61-7.47-.19-10.7-2.19,3.18-1.46,7.41.19,10.7Z"/>
      <path class="cls-8" d="M280.53,239.68c8.52-6,.31-29.06-1.01-38.91.71,11.53-3.25,28.73,1.01,38.91Z"/>
      <path class="cls-8" d="M281.19,177.18c4.63-19.33.18-20.94-2.02-39.13-4.59,12.11-3.44,27.48,2.02,39.13Z"/>
      <path class="cls-8" d="M296.02,122.72c-1.17,5.74-.03,11.96.72,17.76.81-5.86-.39-11.87-.72-17.76Z"/>
      <path class="cls-8" d="M296.34,205.1c-1.84,8.1-2.02,16.44-.99,24.68.82-8.08,1.02-16.55.99-24.68Z"/>
      <path class="cls-8" d="M294.53,236.52c.61,1.26,2.1,1.12,2.74-.02,2.01-3.68-4.55-3.94-2.74.02Z"/>
      <path class="cls-8" d="M295.13,169.88c-3.8,9.21-1.19,19.2,1.92,28.2,1.68-9.35.41-19.06-1.92-28.2Z"/>
      <path class="cls-8" d="M303.96,233.37c2.96-3.21,2.04-10.79.2-15.13-2.35,4.6-2.14,10.36-.2,15.13Z"/>
      <path class="cls-8" d="M308.63,231.21c4.68-5.51,4-13.56,1.62-20.12-2.81,6.13-3.56,13.52-1.62,20.12Z"/>
      <path class="cls-8" d="M312.65,130.53c-.49-4.49-3.76-8.96-3.3-13.31-6.58,8.91-2.38,23.38.78,33.22,2.44-6.17,3.98-13.18,2.52-19.91Z"/>
    </g>
    <g>
      <path class="cls-4" d="M165.79,110.08c12.13,3.55,25.2,3.95,37.7,2.73-12.5-1.96-25.01-3.19-37.7-2.73Z"/>
      <path class="cls-4" d="M171.68,87.74c-12.34-10.27-66.18,19.54-2.19,20.5-7.49-2.18-14.65-4.21-22.3-5.92,7.65-1.33,15.2-4.57,22.3-7.77-3,.01-6.3-.12-9.57.05,12.09-2.3,24.33-3.55,36.47-5.5-8.09-1.09-16.23-.8-24.29.36,9.86-2.64,22.39-3.24,33.2-4.19-11.15-2.38-22.57-.46-33.61,2.48ZM139.93,100.06c-.04.1-.06.19-.08.29-.07-.8.61-1.29,1.62-1.62-.39.46-.71.98-.93,1.62,1.89-2.99,6.3-2.23,8.81-3.38-3.17,1.11-6.85,7.96-9.41,3.1Z"/>
      <path class="cls-4" d="M286.81,86.36c-8.24-1.96-63.09-7.73-52.01,1.31-.49-.14-.85.15-1.28.25-1.7,1.75-.22,4.74,1.23,6.36.64-1.51-.62-4.01-.22-5.46,1.94,1.79,4.54,3.05,7.13,3.32-.58.12-1.16.25-1.72.38,15.49-2.27,31.32-2.71,46.86-6.15ZM234.85,87.69s.03,0,.05.01c-.02,0-.03-.01-.05-.01Z"/>
      <path class="cls-4" d="M233.51,87.92h0s0,0,0,0c0,0,.01,0,.02,0,0,0,0-.01-.01,0Z"/>
      <path class="cls-4" d="M233.5,87.93s0,0,0,0c0,0,0,0,0,0Z"/>
      <path class="cls-4" d="M154.85,236.19c8.37,3.63,17.12,5.88,26.2,3.22-6.56-2.31-20.16-7.67-26.2-3.22Z"/>
    </g>
    <g>
      <path class="cls-1" d="M202.97,1039.56c-56.67,25.82-125.29,19.72-183.92,5.35.4.59.82,1.16,1.29,1.68-2.38-.38-7.46-2.49-8.14,1.02,3.44,3.74,12.13,2.95,16.91,6.89-34.71,3.76-41.9-49.19-2.17-54.46,8.5-2.48,46.7,1.17,47.2-7.6,4.56-27.13,20.96,17.65,16.1,27.08,16.91,5.75.34-21.8,11.94-26.3,35.13,6.03,99.8-4.22,100.79,46.34Z"/>
      <path class="cls-1" d="M34.74,1052.44c.15.32.23.68.25,1.04.64-.3.67-.64-.25-1.04Z"/>
    </g>
    <g>
      <path class="cls-10" d="M229.2,110.04s-.07-.03-.11-.04c4.36-13.51,4.27-42.12-4.19-58.01-5.74-14.06-6.96-27.49-20.6-35.63-26.62-30.1-79.71-14.48-103.02,13.21-23.75,22.56-28.39,58.63-33.8,89.86-8.22,135.3,5.41,270.71,5.22,405.83,2.76,106.14-12.54,213.61-3.47,320.71,5.01,50.98,6.68,99.69,7.26,151.53-.72,5.38,1.12,12.91,7.32,15.48,3.97,24.14,19.88-.71,15.04-14.24-1.37-11.88-1.56-24.49-2.32-36.11,2.52-58.42,2.03-117.38-3.54-175.69-5.14-79.85,4.41-158.91-7.03-238.69,6.1-62.15-6.56-123.97-5.28-186.19,2.08-32.98,3.34-66.14,4.45-99.15.8-36.11-2.63-72.45,6.4-107.83,3.83-43.49,7.15-91.36,40.21-123.38,26.93-25.54,69.12-20.14,82.8,15.05,2.34,12.98-7.37,64.6.82,67.06,3.71-.39,4.22-1.81,8.1-.57,1.76.64,9.97-2.5,5.74-3.18Z"/>
      <path class="cls-10" d="M87.87,1052.1c-25.42-1.8-55.84-2.14-77.34-16.32.13,2.13.68,4.21,1.61,6.03-5.6-2.01-7.8-8.59-11.16-13.25-.38,6.85,2.69,9.6,2.04,15.47,6.11,22.87,46.17,20.95,65.3,20.54-1.44-.21-2.92-.25-4.34-.6,1.03.11,2.06.2,3.04.27-1.41-.33-2.81-.64-4.22-.96.81-.03,1.6-.08,2.36-.17-6.63-.89-13.1-2.71-19.61-4.29,8.88,1.92,18.41,3.96,27.77,3.24-2.5-.45-5.04-.77-7.6-1.08,2.19.06,4.38,0,6.51-.52-7.33-1.2-14.64-3.01-21.95-4.37,6.63-3.34,14.92.57,22.68-.78-.9-.33-1.81-.66-2.71-.98,5.97.1,12.03-.21,17.61-2.23ZM32.15,1060.25c1.75-.34,3.23.39,4.87.88-1.63-.26-3.25-.56-4.87-.88ZM43.32,1054.87c-.8-.47-1.6-.9-2.39-1.33,2.6.43,5.1,1.43,7.61,2.22-1.74-.32-3.48-.62-5.22-.89Z"/>
      <path class="cls-10" d="M114.47,1058.95c-3.33.36-7.19-1.44-10.49-.18,12.52,4.6,25.93,2.33,38.76-.2-9.46-1.42-18.83-.39-28.27.38Z"/>
      <path class="cls-10" d="M196.21,1026.56c-1.17-2.6-1.59-12.68-2.24-3.83,2.77,17.4-21.13,20.48-32.77,26.07,4.11.12,9-.12,13.87-.99-7.66,2.05-15.08,5.63-23.02,6.6-1.7.21-20.26,3.8-13.8,3.46,16.89,1.56,28.39-4.85,43.45-11.7-1.93,1.31-3.99,2.53-6.1,3.71,12.52-2.12,31.4-8.71,22.1-25.39-.55.66-1.04,1.36-1.5,2.08Z"/>
    </g>
    <g>
      <path class="cls-2" d="M117.73,41.39c-11.18,7.99-16.59,23.74-16.4,38.01,4.92-12.92,12.2-24.77,16.4-38.01Z"/>
      <path class="cls-2" d="M78.73,382.42c-.17,208.63,12.57,419.82,17.8,626.61-6.25-3.1-10.71,2.27-14.49,2.59,2.81,2.49,3.96,6.66,8.27,7.9-.92-.14-1.81-.73-2.52-1.34,1.67,5.96,10.38-.78,9.91,4.78,13.76-14.65,5.27-11.09,5.29-28.91-2.07-12.14.09-27.77-1.34-41.4-3.03-107.65-4.72-215.35-5.55-323.03-5.3-185.78-26.16-372.33,5.27-556.15-.53,1.55-1.04,3.1-1.55,4.66.4-2.96.39-6,1.33-8.87-8.53,23.16-14.47,47.89-15.33,72.81.64-3.21,1.3-6.42,1.97-9.65-4.77,44.6-8.78,89.39-9.51,134.27.97-10.21,1.73-20.57,2.72-30.88.87,48.91-5.17,97.71-2.29,146.61ZM86.7,153.32c-.11-6.41,1.49-12.53,2.64-18.8-.98,6.25-1.86,12.52-2.64,18.8Z"/>
      <path class="cls-2" d="M102.77,987.82s0,0,0,0c-.04.04-.07.07-.11.11.04-.03.07-.07.11-.1Z"/>
      <path class="cls-2" d="M225.08,51.14c-.85-1.37-1.31-7.94-3.27-6.61-1.12,1.15-.19.3.57-.02.55,3.43,1.07,6.88,1.59,10.33-1.21-2.27-2.61-4.44-4.23-6.5,7.77,20.39,9.06,42.69,10.93,64.27,2.75-20.61,1.23-41.88-5.59-61.47Z"/>
      <path class="cls-2" d="M226.86,107.97c-25.88-6.09-9.57,16.47,1.3.13-.43-.06-.87-.1-1.3-.13Z"/>
      <path class="cls-2" d="M203.64,1044.59c-1.5-4.66.52-32.16-8.21-24.61,4.63,18.08-3.74,18.86-18.84,22.65-21.84,2.96-42.94,11.1-64.73,13.49-35.07,2.52-77.63-10.83-107.33-11.8,28.91,25.26,162.55,43.9,183.63,15.15.37-1.07,1.47-.99,2.41-1.27-.07.2,3.86-.75,4.57-1.82-.44,1.15-1.06,2.21-1.98,3.09,6.47-1.37,7.38-10.24,10.5-14.88ZM34.91,1054.26c-5.04,4.98-13.92-6.69-21.03-4.76-8.86-8.19,23.15-.24,21.03,4.76Z"/>
    </g>
  </g>
</svg>